<svg height="2990" width="720" xmlns="http://www.w3.org/2000/svg">
<rect height="2990" fill="#555" width="720"></rect>
<text fill="#7f7" font-family="Courier New" font-size="12" xml:space="preserve">
<tspan x="10" y="26">└─┬ ampersand@3.0.6 </tspan>
<tspan x="10" y="42">  ├─┬ ampersand-model@5.0.3 </tspan>
<tspan x="10" y="58">  │ ├─┬ ampersand-state@4.9.1 </tspan>
<tspan x="10" y="74">  │ │ ├─┬ ampersand-events@1.1.1 </tspan>
<tspan x="10" y="90">  │ │ │ ├─┬ lodash.foreach@3.0.3 </tspan>
<tspan x="10" y="106">  │ │ │ │ └── lodash._baseeach@3.0.4 </tspan>
<tspan x="10" y="122">  │ │ │ ├── lodash.isempty@3.0.4 </tspan>
<tspan x="10" y="138">  │ │ │ └─┬ lodash.once@3.0.1 </tspan>
<tspan x="10" y="154">  │ │ │   └── lodash.before@3.0.3 </tspan>
<tspan x="10" y="170">  │ │ ├── array-next@0.0.1 </tspan>
<tspan x="10" y="186">  │ │ ├── key-tree-store@1.3.0 </tspan>
<tspan x="10" y="202">  │ │ ├─┬ lodash.bind@3.1.0 </tspan>
<tspan x="10" y="218">  │ │ │ ├── lodash._createwrapper@3.2.0 </tspan>
<tspan x="10" y="234">  │ │ │ ├── lodash._replaceholders@3.0.0 </tspan>
<tspan x="10" y="250">  │ │ │ └── lodash.restparam@3.6.1 </tspan>
<tspan x="10" y="266">  │ │ ├─┬ lodash.escape@3.2.0 </tspan>
<tspan x="10" y="282">  │ │ │ └── lodash._root@3.0.1 </tspan>
<tspan x="10" y="298">  │ │ ├─┬ lodash.forown@3.0.2 </tspan>
<tspan x="10" y="314">  │ │ │ └── lodash._basefor@3.0.3 </tspan>
<tspan x="10" y="330">  │ │ ├─┬ lodash.has@3.2.1 </tspan>
<tspan x="10" y="346">  │ │ │ └── lodash.isarguments@3.1.0 </tspan>
<tspan x="10" y="362">  │ │ ├─┬ lodash.includes@3.1.3 </tspan>
<tspan x="10" y="378">  │ │ │ ├── lodash._baseindexof@3.1.0 </tspan>
<tspan x="10" y="394">  │ │ │ └── lodash._basevalues@3.0.0 </tspan>
<tspan x="10" y="410">  │ │ ├── lodash.isarray@3.0.4 </tspan>
<tspan x="10" y="426">  │ │ ├── lodash.isdate@3.0.3 </tspan>
<tspan x="10" y="442">  │ │ ├─┬ lodash.isequal@3.0.4 </tspan>
<tspan x="10" y="458">  │ │ │ └─┬ lodash._baseisequal@3.0.7 </tspan>
<tspan x="10" y="474">  │ │ │   └── lodash.istypedarray@3.0.6 </tspan>
<tspan x="10" y="490">  │ │ ├── lodash.isfunction@3.0.8 </tspan>
<tspan x="10" y="506">  │ │ ├── lodash.isstring@3.0.1 </tspan>
<tspan x="10" y="522">  │ │ ├─┬ lodash.omit@3.1.0 </tspan>
<tspan x="10" y="538">  │ │ │ ├── lodash._arraymap@3.0.0 </tspan>
<tspan x="10" y="554">  │ │ │ ├─┬ lodash._basedifference@3.0.3 </tspan>
<tspan x="10" y="570">  │ │ │ │ ├── lodash._cacheindexof@3.0.2 </tspan>
<tspan x="10" y="586">  │ │ │ │ └── lodash._createcache@3.1.2 </tspan>
<tspan x="10" y="602">  │ │ │ ├── lodash._baseflatten@3.1.4 </tspan>
<tspan x="10" y="618">  │ │ │ ├── lodash._pickbyarray@3.0.2 </tspan>
<tspan x="10" y="634">  │ │ │ ├── lodash._pickbycallback@3.0.0 </tspan>
<tspan x="10" y="650">  │ │ │ └── lodash.keysin@3.0.8 </tspan>
<tspan x="10" y="666">  │ │ ├─┬ lodash.union@3.1.0 </tspan>
<tspan x="10" y="682">  │ │ │ └── lodash._baseuniq@3.0.3 </tspan>
<tspan x="10" y="698">  │ │ └── lodash.uniqueid@3.2.0 </tspan>
<tspan x="10" y="714">  │ ├─┬ ampersand-sync@3.0.7 </tspan>
<tspan x="10" y="730">  │ │ ├── lodash.defaults@3.1.2 </tspan>
<tspan x="10" y="746">  │ │ ├── qs@2.4.2 </tspan>
<tspan x="10" y="762">  │ │ └─┬ xhr@1.17.1 </tspan>
<tspan x="10" y="778">  │ │   ├─┬ global@4.3.1 </tspan>
<tspan x="10" y="794">  │ │   │ ├─┬ min-document@2.19.0 </tspan>
<tspan x="10" y="810">  │ │   │ │ └── dom-walk@0.1.1 </tspan>
<tspan x="10" y="826">  │ │   │ └── process@0.5.2 </tspan>
<tspan x="10" y="842">  │ │   ├── once@1.1.1 </tspan>
<tspan x="10" y="858">  │ │   └─┬ parse-headers@2.0.1 </tspan>
<tspan x="10" y="874">  │ │     ├─┬ for-each@0.3.2 </tspan>
<tspan x="10" y="890">  │ │     │ └── is-function@1.0.1 </tspan>
<tspan x="10" y="906">  │ │     └── trim@0.0.1 </tspan>
<tspan x="10" y="922">  │ ├─┬ ampersand-version@1.0.2 </tspan>
<tspan x="10" y="938">  │ │ └─┬ through2@0.6.5 </tspan>
<tspan x="10" y="954">  │ │   ├── readable-stream@1.0.34 </tspan>
<tspan x="10" y="970">  │ │   └── xtend@4.0.1 </tspan>
<tspan x="10" y="986">  │ ├─┬ lodash.assign@3.2.0 </tspan>
<tspan x="10" y="1002">  │ │ ├─┬ lodash._baseassign@3.2.0 </tspan>
<tspan x="10" y="1018">  │ │ │ └── lodash._basecopy@3.0.1 </tspan>
<tspan x="10" y="1034">  │ │ ├── lodash._createassigner@3.1.1 </tspan>
<tspan x="10" y="1050">  │ │ └─┬ lodash.keys@3.1.2 </tspan>
<tspan x="10" y="1066">  │ │   └── lodash._getnative@3.9.1 </tspan>
<tspan x="10" y="1082">  │ ├─┬ lodash.clone@3.0.3 </tspan>
<tspan x="10" y="1098">  │ │ ├─┬ lodash._baseclone@3.3.0 </tspan>
<tspan x="10" y="1114">  │ │ │ ├── lodash._arraycopy@3.0.0 </tspan>
<tspan x="10" y="1130">  │ │ │ └── lodash._arrayeach@3.0.0 </tspan>
<tspan x="10" y="1146">  │ │ ├── lodash._bindcallback@3.0.1 </tspan>
<tspan x="10" y="1162">  │ │ └── lodash._isiterateecall@3.0.9 </tspan>
<tspan x="10" y="1178">  │ ├── lodash.isobject@3.0.2 </tspan>
<tspan x="10" y="1194">  │ └─┬ lodash.result@3.1.2 </tspan>
<tspan x="10" y="1210">  │   ├── lodash._baseget@3.7.2 </tspan>
<tspan x="10" y="1226">  │   ├── lodash._baseslice@3.0.3 </tspan>
<tspan x="10" y="1242">  │   └── lodash._topath@3.8.1 </tspan>
<tspan x="10" y="1258">  ├─┬ chalk@1.1.3 </tspan>
<tspan x="10" y="1274">  │ ├── ansi-styles@2.2.1 </tspan>
<tspan x="10" y="1290">  │ ├── escape-string-regexp@1.0.5 </tspan>
<tspan x="10" y="1306">  │ ├─┬ has-ansi@2.0.0 </tspan>
<tspan x="10" y="1322">  │ │ └── ansi-regex@2.1.1 </tspan>
<tspan x="10" y="1338">  │ ├── strip-ansi@3.0.1 </tspan>
<tspan x="10" y="1354">  │ └── supports-color@2.0.0 </tspan>
<tspan x="10" y="1370">  ├─┬ escodegen@1.8.1 </tspan>
<tspan x="10" y="1386">  │ ├── estraverse@1.9.3 </tspan>
<tspan x="10" y="1402">  │ ├── esutils@2.0.2 </tspan>
<tspan x="10" y="1418">  │ ├─┬ optionator@0.8.2 </tspan>
<tspan x="10" y="1434">  │ │ ├── deep-is@0.1.3 </tspan>
<tspan x="10" y="1450">  │ │ ├── fast-levenshtein@2.0.6 </tspan>
<tspan x="10" y="1466">  │ │ ├── levn@0.3.0 </tspan>
<tspan x="10" y="1482">  │ │ ├── prelude-ls@1.1.2 </tspan>
<tspan x="10" y="1498">  │ │ ├── type-check@0.3.2 </tspan>
<tspan x="10" y="1514">  │ │ └── wordwrap@1.0.0 </tspan>
<tspan x="10" y="1530">  │ └─┬ source-map@0.2.0 </tspan>
<tspan x="10" y="1546">  │   └── amdefine@1.0.1 </tspan>
<tspan x="10" y="1562">  ├── esprima@2.7.3 </tspan>
<tspan x="10" y="1578">  ├── find-root@0.1.2 </tspan>
<tspan x="10" y="1594">  ├─┬ fs-extra@0.24.0 </tspan>
<tspan x="10" y="1610">  │ ├── graceful-fs@4.1.11 </tspan>
<tspan x="10" y="1626">  │ ├── jsonfile@2.4.0 </tspan>
<tspan x="10" y="1642">  │ ├── path-is-absolute@1.0.1 </tspan>
<tspan x="10" y="1658">  │ └─┬ rimraf@2.6.1 </tspan>
<tspan x="10" y="1674">  │   └─┬ glob@7.1.1 </tspan>
<tspan x="10" y="1690">  │     ├── fs.realpath@1.0.0 </tspan>
<tspan x="10" y="1706">  │     ├─┬ inflight@1.0.6 </tspan>
<tspan x="10" y="1722">  │     │ └── once@1.4.0 </tspan>
<tspan x="10" y="1738">  │     ├─┬ minimatch@3.0.3 </tspan>
<tspan x="10" y="1754">  │     │ └─┬ brace-expansion@1.1.6 </tspan>
<tspan x="10" y="1770">  │     │   ├── balanced-match@0.4.2 </tspan>
<tspan x="10" y="1786">  │     │   └── concat-map@0.0.1 </tspan>
<tspan x="10" y="1802">  │     └─┬ once@1.4.0 </tspan>
<tspan x="10" y="1818">  │       └── wrappy@1.0.2 </tspan>
<tspan x="10" y="1834">  ├─┬ inquirer@0.8.5 </tspan>
<tspan x="10" y="1850">  │ ├── ansi-regex@1.1.1 </tspan>
<tspan x="10" y="1866">  │ ├── cli-width@1.1.1 </tspan>
<tspan x="10" y="1882">  │ ├─┬ figures@1.7.0 </tspan>
<tspan x="10" y="1898">  │ │ └── object-assign@4.1.1 </tspan>
<tspan x="10" y="1914">  │ ├─┬ readline2@0.1.1 </tspan>
<tspan x="10" y="1930">  │ │ ├── mute-stream@0.0.4 </tspan>
<tspan x="10" y="1946">  │ │ └─┬ strip-ansi@2.0.1 </tspan>
<tspan x="10" y="1962">  │ │   └── ansi-regex@1.1.1 </tspan>
<tspan x="10" y="1978">  │ ├── rx@2.5.3 </tspan>
<tspan x="10" y="1994">  │ └── through@2.3.8 </tspan>
<tspan x="10" y="2010">  ├─┬ jade@1.11.0 </tspan>
<tspan x="10" y="2026">  │ ├── character-parser@1.2.1 </tspan>
<tspan x="10" y="2042">  │ ├─┬ clean-css@3.4.25 </tspan>
<tspan x="10" y="2058">  │ │ ├─┬ commander@2.8.1 </tspan>
<tspan x="10" y="2074">  │ │ │ └── graceful-readlink@1.0.1 </tspan>
<tspan x="10" y="2090">  │ │ └── source-map@0.4.4 </tspan>
<tspan x="10" y="2106">  │ ├── commander@2.6.0 </tspan>
<tspan x="10" y="2122">  │ ├─┬ constantinople@3.0.2 </tspan>
<tspan x="10" y="2138">  │ │ └── acorn@2.7.0 </tspan>
<tspan x="10" y="2154">  │ ├─┬ jstransformer@0.0.2 </tspan>
<tspan x="10" y="2170">  │ │ ├── is-promise@2.1.0 </tspan>
<tspan x="10" y="2186">  │ │ └─┬ promise@6.1.0 </tspan>
<tspan x="10" y="2202">  │ │   └── asap@1.0.0 </tspan>
<tspan x="10" y="2218">  │ ├─┬ mkdirp@0.5.1 </tspan>
<tspan x="10" y="2234">  │ │ └── minimist@0.0.8 </tspan>
<tspan x="10" y="2250">  │ ├─┬ transformers@2.1.0 </tspan>
<tspan x="10" y="2266">  │ │ ├─┬ css@1.0.8 </tspan>
<tspan x="10" y="2282">  │ │ │ ├── css-parse@1.0.4 </tspan>
<tspan x="10" y="2298">  │ │ │ └── css-stringify@1.0.5 </tspan>
<tspan x="10" y="2314">  │ │ ├─┬ promise@2.0.0 </tspan>
<tspan x="10" y="2330">  │ │ │ └── is-promise@1.0.1 </tspan>
<tspan x="10" y="2346">  │ │ └─┬ uglify-js@2.2.5 </tspan>
<tspan x="10" y="2362">  │ │   ├─┬ optimist@0.3.7 </tspan>
<tspan x="10" y="2378">  │ │   │ └── wordwrap@0.0.3 </tspan>
<tspan x="10" y="2394">  │ │   └── source-map@0.1.43 </tspan>
<tspan x="10" y="2410">  │ ├─┬ uglify-js@2.8.21 </tspan>
<tspan x="10" y="2426">  │ │ ├── source-map@0.5.6 </tspan>
<tspan x="10" y="2442">  │ │ ├── uglify-to-browserify@1.0.2 </tspan>
<tspan x="10" y="2458">  │ │ └─┬ yargs@3.10.0 </tspan>
<tspan x="10" y="2474">  │ │   ├── camelcase@1.2.1 </tspan>
<tspan x="10" y="2490">  │ │   ├─┬ cliui@2.1.0 </tspan>
<tspan x="10" y="2506">  │ │   │ ├─┬ center-align@0.1.3 </tspan>
<tspan x="10" y="2522">  │ │   │ │ ├─┬ align-text@0.1.4 </tspan>
<tspan x="10" y="2538">  │ │   │ │ │ ├─┬ kind-of@3.1.0 </tspan>
<tspan x="10" y="2554">  │ │   │ │ │ │ └── is-buffer@1.1.5 </tspan>
<tspan x="10" y="2570">  │ │   │ │ │ └── longest@1.0.1 </tspan>
<tspan x="10" y="2586">  │ │   │ │ └── lazy-cache@1.0.4 </tspan>
<tspan x="10" y="2602">  │ │   │ ├── right-align@0.1.3 </tspan>
<tspan x="10" y="2618">  │ │   │ └── wordwrap@0.0.2 </tspan>
<tspan x="10" y="2634">  │ │   ├── decamelize@1.2.0 </tspan>
<tspan x="10" y="2650">  │ │   └── window-size@0.1.0 </tspan>
<tspan x="10" y="2666">  │ ├── void-elements@2.0.1 </tspan>
<tspan x="10" y="2682">  │ └─┬ with@4.0.3 </tspan>
<tspan x="10" y="2698">  │   ├── acorn@1.2.2 </tspan>
<tspan x="10" y="2714">  │   └── acorn-globals@1.0.9 </tspan>
<tspan x="10" y="2730">  ├── lodash@3.10.1 </tspan>
<tspan x="10" y="2746">  ├─┬ multiline@1.0.2 </tspan>
<tspan x="10" y="2762">  │ └─┬ strip-indent@1.0.1 </tspan>
<tspan x="10" y="2778">  │   └── get-stdin@4.0.1 </tspan>
<tspan x="10" y="2794">  ├─┬ rc@1.2.1 </tspan>
<tspan x="10" y="2810">  │ ├── deep-extend@0.4.1 </tspan>
<tspan x="10" y="2826">  │ ├── ini@1.3.4 </tspan>
<tspan x="10" y="2842">  │ ├── minimist@1.2.0 </tspan>
<tspan x="10" y="2858">  │ └── strip-json-comments@2.0.1 </tspan>
<tspan x="10" y="2874">  ├─┬ readable-stream@1.1.14 </tspan>
<tspan x="10" y="2890">  │ ├── core-util-is@1.0.2 </tspan>
<tspan x="10" y="2906">  │ ├── inherits@2.0.3 </tspan>
<tspan x="10" y="2922">  │ ├── isarray@0.0.1 </tspan>
<tspan x="10" y="2938">  │ └── string_decoder@0.10.31 </tspan>
<tspan x="10" y="2954">  ├── repeat-string@1.6.1 </tspan>
<tspan x="10" y="2970">  └── slugger@1.0.1</tspan>
</text>
</svg>
